<svg xmlns="http://www.w3.org/2000/svg" xmlns:xlink="http://www.w3.org/1999/xlink" width="70" height="84" viewBox="0 0 70 84"><defs><path id="kma0a" d="M1088.49 2764.4l4.11 6.8 12.38-21.47a29.55 29.55 0 0 1-5.77-3.91zm26.49-32c-2.3-.82-4.22-2.41-5.46-4.46l-8.78 15.22a26.52 26.52 0 0 0 5.75 3.96zm28.42 38.8l4.11-6.8-10.4-18.02a29.52 29.52 0 0 1-5.87 3.73zm-16.45-42.46c-1.4 1.9-3.43 3.3-5.78 3.92l8.56 14.84c2.13-1 4.1-2.26 5.86-3.76zm24.06 35.76l-7.7 12.5-14.84-25.73c-2.67.96-5.51 1.54-8.47 1.7v4.53a1.5 1.5 0 1 1-3 0v-4.54a29.36 29.36 0 0 1-9.29-2L1092.7 2777l-7.7-12.5 12-20.8a29.47 29.47 0 0 1-6.67-11.41l2.34-2.94a26.46 26.46 0 0 0 5.9 11.6l9.59-16.62a10.5 10.5 0 0 1 8.84-12.22v-2.32a5.5 5.5 0 1 1 3 0v2.32a10.5 10.5 0 0 1 8.55 13.44l9.27 16.07a26.48 26.48 0 0 0 6.5-12.26l2.35 2.93a29.5 29.5 0 0 1-7.29 12.05zm-33.01-31.38l-8.77 15.21c2.44.91 5.05 1.48 7.77 1.63v-6.46a1.5 1.5 0 1 1 3 0v6.46c2.41-.14 4.74-.6 6.94-1.33zm-7-10.62a7.5 7.5 0 1 0 15 0 7.5 7.5 0 0 0-15 0zm5-18a2.5 2.5 0 1 0 5 0 2.5 2.5 0 0 0-5 0zm2.5-7.5z"/></defs><g><g transform="translate(-1083 -2695)"><use fill="#7b8082" xlink:href="#kma0a"/></g></g></svg>