<svg xmlns="http://www.w3.org/2000/svg" xmlns:xlink="http://www.w3.org/1999/xlink" width="93" height="84" viewBox="0 0 93 84"><defs><path id="5c02a" d="M1467 2770l-26.5 13-26.5-13v-14.67l-18-8.88 12.23-6.04-12.24-5.91 32.01-15.46v3.79l-25 11.67 8.85 4.13 10.7-5.28 2.19 2.4-9.29 4.56 25.05 11.68 25.04-11.68-9.97-4.9 2.18-2.4 11.4 5.62 8.85-4.13-27-12.6v-3.83l34 16.43-12.23 5.91 12.24 6.04-18.01 8.88zm-50-1.62l22 10.86v-22.88l-11.45 5.65-10.55-5.2zm47 0v-11.57l-10.55 5.2-11.45-5.65v22.88zm-61-21.95l24.58 12.08 8.97-4.41-24.78-11.98zm50.42 12.08l24.58-12.08-8.77-4.3-24.78 11.97zm-13.95-11.51l-15.47-18h7v-23h17v23h9zm5.53-15v-23h-11v23h-4l9.6 10.57L1450 2732z"/></defs><g><g transform="translate(-1394 -2704)"><use fill="#7b8082" xlink:href="#5c02a"/></g></g></svg>