<svg xmlns="http://www.w3.org/2000/svg" xmlns:xlink="http://www.w3.org/1999/xlink" width="85" height="84" viewBox="0 0 85 84"><defs><path id="h02na" d="M1800.52 2741.5l3.47 6.7-5.84 5.28 1.06 8.33-7.3 2.97-1.85 8.19-7.88.3-4.56 7.06-7.5-2.41-6.7 5.08-6.23-4.82-8.05 2.5-4.2-6.66-8.4-.4-1.67-7.68-7.76-3.25 1.07-7.78-6.18-5.7 4.08-7.72-4.08-7.7 6.19-5.7-1.08-7.78 7.77-3.24 1.66-7.68 8.41-.4 4.2-6.66 8.04 2.5 6.22-4.83 6.7 5.09 7.5-2.41 4.56 7.06 7.88.3 1.86 8.19 7.3 2.96-1.07 8.33 5.84 5.27zm-37.1 37.51l6.07-4.6 6.75 2.16 4.13-6.4 7.08-.27 1.68-7.43 6.57-2.67-.97-7.55 5.26-4.75-3.1-6 3.09-6-5.25-4.74.96-7.55-6.56-2.67-1.68-7.43-7.08-.26-4.13-6.4-6.75 2.16-6.07-4.6-5.6 4.34-7.28-2.26-3.77 5.99-7.61.36-1.5 6.92-7.02 2.94.96 7.01-5.6 5.17 3.72 7.02-3.72 7.03 5.6 5.16-.97 7.02 7.03 2.94 1.5 6.92 7.6.36 3.78 6 7.28-2.26zm.08-62.01a24.5 24.5 0 1 1 0 49 24.5 24.5 0 0 1 0-49zm-21.5 24.5a21.5 21.5 0 1 0 43 0 21.5 21.5 0 0 0-43 0zm7-6.5a6 6 0 1 1 12 0v1a6 6 0 1 1-12 0zm3 1a3 3 0 0 0 6 0v-1a3 3 0 0 0-6 0zm13 11a6 6 0 1 1 12 0v1a6 6 0 1 1-12 0zm3 1a3 3 0 0 0 6 0v-1a3 3 0 0 0-6 0zm-13.01 5.5l14.45-25.48 2.55 1.5-14.45 25.48z"/></defs><g><g transform="translate(-1720 -2699)"><use fill="#7b8082" xlink:href="#h02na"/></g></g></svg>