<svg xmlns="http://www.w3.org/2000/svg" xmlns:xlink="http://www.w3.org/1999/xlink" width="85" height="84" viewBox="0 0 85 84"><defs><path id="e7yua" d="M832.28 2771l-4.33-4.33A37.4 37.4 0 0 1 798.5 2781a37.5 37.5 0 0 1-37.47-39H764v3h.03a34.5 34.5 0 0 0 63.74 16.76l1.77 1.77 3.47 3.46v-14H819l1.42 1.42 2.25 2.24a27.5 27.5 0 0 1-51.62-14.65h3.01a22.89 22.89 0 0 0 .17 4.78l.16-.16.05.38h-.18a24.5 24.5 0 0 0 24.25 21c8.37 0 15.74-4.21 20.16-10.62l-3.66-3.66V2750h21v21zm-9.71-32h.18a24.5 24.5 0 0 0-24.25-21 24.43 24.43 0 0 0-20.16 10.62l3.66 3.66v3.72h-21v-21h3.72l4.33 4.33A37.4 37.4 0 0 1 798.5 2705a37.5 37.5 0 0 1 37.47 39H833v-1.46a23.35 23.35 0 0 0 0-.09v-.45a34.5 34.5 0 0 0-63.77-17.76l-1.77-1.77-3.47-3.46v14H778l-1.42-1.42-2.25-2.24a27.5 27.5 0 0 1 51.66 13.1v.1c0 .49-.02.97-.04 1.45h-3.01a22.89 22.89 0 0 0-.17-4.78l-.16.16-.05-.38zm13.15 8H833h2.72zm-9.72 0h-3.43H826zm-29-21.5a1.5 1.5 0 1 1 3 0v15.5h10.5a1.5 1.5 0 1 1 0 3h-12a1.5 1.5 0 0 1-1.5-1.5zm0 32a1.5 1.5 0 1 1 3 0v3a1.5 1.5 0 1 1-3 0zm-12.5-15.5a1.5 1.5 0 1 1 0 3h-3a1.5 1.5 0 1 1 0-3z"/></defs><g><g transform="translate(-757 -2704)"><use fill="#7b8082" xlink:href="#e7yua"/></g></g></svg>